<?xml version="1.0" encoding="utf-8"?>
<!-- Generator: Adobe Illustrator 22.1.0, SVG Export Plug-In . SVG Version: 6.00 Build 0)  -->
<svg version="1.1" id="Ebene_1" xmlns="http://www.w3.org/2000/svg" xmlns:xlink="http://www.w3.org/1999/xlink" x="0px" y="0px"
	 viewBox="0 0 150 150" style="enable-background:new 0 0 150 150;" xml:space="preserve">
<style type="text/css">
	.st0{fill:#CC1A1A;}
	.st1{fill:#FFFFFF;}
	.st2{fill:#C9C9C9;}
</style>
<rect class="st0" width="150" height="150"/>
<g>
	<polygon class="st1" points="40,40 35.7,59 35.6,59.5 35.4,58.7 30.4,45.7 24,51.4 32.1,69.7 40.8,69.7 47.8,32.8 	"/>
	<path class="st1" d="M51.8,69.7h6.4V41.3h-6.4V69.7z M51.8,30.3v6.4l6.4-6.3v-5.8L51.8,30.3z"/>
	<path class="st1" d="M72.5,70.3c-3,0-5.3-1-6.8-2.8c-1.6-1.8-2.3-4.5-2.3-8.2V41.3h6.3v18.3c0,1.4,0.3,2.5,0.9,3.1
		c0.6,0.7,1.4,1.2,2.6,1.2h6.5c1.2,0,2.6-0.5,3.2-1.2c0.6-0.7,0.9-1.7,0.9-3.1V41.3h6.3v18.1c0,3.7-0.8,6.3-2.4,8.2
		s-3.8,2.8-6.8,2.8H72.5z"/>
	<path class="st1" d="M117.6,63.5c1.5-0.4,2.7-1,3.6-1.8c1.8-1.6,2.8-3.9,2.8-6.9v-4c0-3-0.9-5.4-2.8-6.9c-1.8-1.6-4.4-2.6-8.1-2.6
		h-1.9h-16v28.5h6.3V47.9h11.7c1.4,0,2.4,0.3,3.1,0.9s1.2,2,1.2,3.2v2c0,1.2-0.5,2-1.2,2.7c-0.6,0.6-1.7,0.9-3.1,0.9H106l0.2,3.6
		l9.6,8.6h8.3L117.6,63.5z"/>
</g>
<g>
	<path class="st2" d="M26,95.5c0-3.2,1-5.6,2.9-7.3c1.9-1.7,4.8-2.5,8.7-2.5h7.1v6.7h-7.3c-1.5,0-2.6,0.3-3.3,0.9
		c-0.7,0.6-1.3,1.5-1.3,2.8v6.9c0,1.3,0.6,2.8,1.3,3.4c0.7,0.6,1.8,0.9,3.3,0.9h7.3v6.7h-7.1c-3.9,0-6.7-0.9-8.7-2.5
		c-1.9-1.6-2.9-4.1-2.9-7.3C26,104.4,26,95.5,26,95.5z"/>
	<path class="st2" d="M67.3,85.8c2.9,0,5.2,0.9,6.7,2.8c1.5,1.8,2.3,4.4,2.3,8v17.7H70V96.3c0-1.4-0.3-2.4-0.8-3
		c-0.6-0.6-1.4-1.2-2.6-1.2h-6.4c-1.2,0-2.6,0.5-3.1,1.2c-0.6,0.6-0.8,1.8-0.8,3v17.9H50V96.5c0-3.6,0.8-6.2,2.3-8
		c1.5-1.8,3.7-2.8,6.7-2.8H67.3z"/>
	<path class="st2" d="M92.9,108.2c-1.2,0-2.2,0-2.9-0.1s-1.4-0.3-1.7-0.6c-0.5-0.3-0.7-0.6-0.9-1.2c-0.2-0.5-0.2-1.2-0.2-2V92.1H93
		V86h-5.9v-9.5h-5.9v27.7c0,3.3,0.7,5.8,2.3,7.5c1.6,1.7,3.8,2.5,6.7,2.5h2.7L92.9,108.2L92.9,108.2z"/>
	<rect x="117.6" y="76.5" class="st2" width="6.4" height="37.8"/>
	<g>
		<path class="st2" d="M113.2,86H109c-2.1,0-3.8,0.6-4.8,1.7V86h-6.4v28.3h6.4V96c0-1.4,0.3-2.4,0.9-2.9c0.6-0.6,1.6-0.9,2.9-0.9
			h5.3L113.2,86L113.2,86z"/>
	</g>
</g>
</svg>
