<?xml version="1.0" encoding="utf-8"?>
<!-- Generator: Adobe Illustrator 22.1.0, SVG Export Plug-In . SVG Version: 6.00 Build 0)  -->
<svg version="1.1" id="Vektor-Smartobjekt_xA0_Bild_1_"
	 xmlns="http://www.w3.org/2000/svg" xmlns:xlink="http://www.w3.org/1999/xlink" x="0px" y="0px" viewBox="0 0 64 64"
	 style="enable-background:new 0 0 64 64;" xml:space="preserve">
<style type="text/css">
	.st0{fill:#C9C9C9;stroke:#999999;stroke-width:0.5;stroke-miterlimit:10;}
	.st1{fill:#CC1A1A;}
</style>
<g>
	<path class="st0" d="M35.9,30.6c0-4,1.3-7.1,3.7-9.1s6-3.1,10.9-3.1h8.9v8.4h-9.1c-1.9,0-3.2,0.3-4.2,1.2c-0.9,0.8-1.6,1.9-1.6,3.5
		v8.7c0,1.6,0.7,3.5,1.6,4.3c0.9,0.8,2.3,1.2,4.2,1.2h9.1V54h-8.9c-4.9,0-8.4-1.2-10.9-3.1c-2.4-2-3.7-5.1-3.7-9.1
		C35.9,41.7,35.9,30.6,35.9,30.6z"/>
	<polygon class="st1" points="23.6,16.5 18.2,40.5 18.1,41 17.8,40.1 11.6,23.7 3.5,30.9 13.7,54 24.7,54 33.5,7.5 	"/>
</g>
</svg>
