<?xml version="1.0" encoding="utf-8"?>
<!-- Generator: Adobe Illustrator 22.0.1, SVG Export Plug-In . SVG Version: 6.00 Build 0)  -->
<svg version="1.1" id="Ebene_1" xmlns="http://www.w3.org/2000/svg" xmlns:xlink="http://www.w3.org/1999/xlink" x="0px" y="0px"
	 viewBox="0 0 64 64" style="enable-background:new 0 0 64 64;" xml:space="preserve">
<style type="text/css">
	.st0{fill:#EEEEEE;}
	.st1{fill:#706F6F;}
</style>
<circle class="st0" cx="32" cy="36.4" r="18"/>
<g>
	<path class="st1" d="M32,55.8c-10.9,0-19.6-8.8-19.6-19.6c0-10.8,8.7-19.5,19.4-19.6c11-0.1,19.9,8.8,19.9,19.7
		C51.6,47.1,42.9,55.8,32,55.8z M46.9,36.2c0.1-8.1-6.5-14.8-14.6-14.9c-8.3-0.1-15,6.6-15.1,14.7c-0.1,8.3,6.6,14.9,14.6,15
		C40.1,51.2,46.9,44.4,46.9,36.2z"/>
	<path class="st1" d="M54.8,39.7c0.4-2.8,0.3-5.5-0.3-8.3c0.4,0.1,0.7,0.2,1,0.3c2.4,0.8,4.8,1.5,7.2,2.3c1,0.3,1.2,0.7,1.2,1.7
		c0,0.9,0,1.8,0,2.7c0,0.8-0.6,1.4-1.4,1.4c-2.5,0-5.1,0-7.6,0C55,39.7,54.9,39.7,54.8,39.7z"/>
	<path class="st1" d="M9.4,31.3c-0.6,2.8-0.7,5.6-0.3,8.4c-0.2,0-0.3,0-0.5,0c-2.4,0-4.8,0-7.1,0c-1,0-1.6-0.6-1.6-1.6
		c0-0.9,0-1.8,0-2.7c0-0.8,0.3-1.2,1.1-1.5c1.2-0.4,2.5-0.8,3.7-1.2c1.5-0.5,2.9-0.9,4.4-1.4C9.2,31.4,9.3,31.3,9.4,31.3z"/>
	<path class="st1" d="M36.8,13.6c-3.1-0.6-6.2-0.6-9.4-0.1c0.1-0.2,0.1-0.4,0.1-0.5c0.8-2.5,1.6-5,2.4-7.6c0.1-0.4,0.3-0.7,0.6-1
		c0.4-0.5,2.3-0.5,2.8,0c0.2,0.2,0.4,0.5,0.5,0.8c1,2.7,2,5.4,2.9,8.1C36.7,13.4,36.8,13.5,36.8,13.6z"/>
	<path class="st1" d="M25.2,43.5c0.7-0.6,1.3-1.2,1.9-1.8c-2.9-3-2.5-7.5,0.1-10c2.6-2.6,7-2.8,10,0c0.6-0.6,1.2-1.2,1.8-1.9
		c2.4,2.5,3.4,5.4,2.7,8.7c-0.8,3.8-3.1,6.4-6.8,7.5C31.3,47,28,46.1,25.2,43.5z M32,40.7c2.5,0,4.5-2,4.5-4.4c0-2.5-2-4.5-4.4-4.5
		c-2.5,0-4.5,2-4.5,4.5C27.5,38.7,29.5,40.7,32,40.7z"/>
</g>
</svg>
