<?xml version="1.0" encoding="utf-8"?>
<!-- Generator: Adobe Illustrator 16.0.4, SVG Export Plug-In . SVG Version: 6.00 Build 0)  -->
<!DOCTYPE svg PUBLIC "-//W3C//DTD SVG 1.1//EN" "http://www.w3.org/Graphics/SVG/1.1/DTD/svg11.dtd">
<svg version="1.1" id="Ebene_1" xmlns="http://www.w3.org/2000/svg" xmlns:xlink="http://www.w3.org/1999/xlink" x="0px" y="0px"
	 width="192px" height="16px" viewBox="0 0 192 16" enable-background="new 0 0 192 16" xml:space="preserve">
<rect x="176" fill="#283F1C" width="16" height="16"/>
<rect x="17.5" y="1.5" fill="#FFFFFF" width="13" height="13"/>
<g>
	<path fill="#79797A" d="M13.248,7.646V5.519c0-3.25-2.157-5.519-5.25-5.519C4.909,0,2.752,2.269,2.752,5.519v2.127H1.6V16h12.8
		V7.646H13.248z M4.055,5.519c0-2.542,1.586-4.251,3.943-4.251c2.363,0,3.945,1.709,3.945,4.251v2.127H4.055V5.519z M6.781,14.186
		l0.607-2.711c-0.3-0.19-0.498-0.521-0.498-0.896C6.891,9.98,7.388,9.498,8,9.498c0.611,0,1.107,0.482,1.107,1.078
		c0,0.375-0.198,0.705-0.496,0.898l0.605,2.711H6.781L6.781,14.186z"/>
</g>
<g>
	<polygon fill="#E62A2C" points="30.751,13.512 25.238,7.999 30.75,2.492 29.513,1.253 24,6.761 18.488,1.249 17.251,2.486 
		22.763,7.998 17.246,13.51 18.484,14.748 24,9.236 29.514,14.75 	"/>
	<path fill="#9A9999" d="M31,15H17V1h14V15z M17.875,14.125h12.25V1.875h-12.25V14.125z"/>
</g>
<g>
	<rect x="32.5" y="13.562" fill="#FFFFFF" width="15" height="1.938"/>
	<polygon fill="#FFFFFF" points="40,12.438 44.313,8.126 41.516,8.126 41.516,0.5 38.485,0.5 38.485,8.126 35.687,8.126 	"/>
</g>
<g>
	<path fill="#747274" d="M51.191,14.004l-1.186-1.184l0.335-2.653l2.438,0.985l0.994,2.442L51.191,14.004z M61.404,2.607L58.27,0.5
		l-8.666,8.656L48.496,15.5l6.348-1.111l8.66-8.657L61.404,2.607z"/>
</g>
<g>
	<path fill="#FFFFFF" d="M99.191,14.004l-1.187-1.184l0.335-2.653l2.438,0.985l0.994,2.442L99.191,14.004z M109.404,2.607
		L106.27,0.5l-8.666,8.656L96.496,15.5l6.348-1.111l8.66-8.657L109.404,2.607z"/>
</g>
<g>
	<g>
		<path fill="#FFFFFF" d="M73.068,6.972H79.5v2.086h-6.432V15.5H70.9V9.059h-6.4V6.972h6.4V0.5h2.168V6.972z"/>
	</g>
</g>
<g>
	<path fill="#FFFFFF" d="M90.65,13.525c0-0.291-0.236-0.525-0.526-0.525S89.6,13.234,89.6,13.525s0.234,0.524,0.524,0.524
		S90.65,13.816,90.65,13.525 M83.525,13C83.236,13,83,13.234,83,13.525s0.236,0.524,0.525,0.524c0.291,0,0.524-0.233,0.524-0.524
		S83.816,13,83.525,13 M95.5,1.271v0.676h-1.557l-3.352,10.471c0.432,0.184,0.733,0.611,0.733,1.107c0,0.664-0.54,1.203-1.203,1.203
		s-1.203-0.539-1.203-1.203c0-0.188,0.045-0.367,0.123-0.525h-4.438c0.078,0.158,0.123,0.338,0.123,0.525
		c0,0.664-0.541,1.203-1.203,1.203c-0.664,0-1.203-0.539-1.203-1.203c0-0.646,0.511-1.17,1.146-1.199v-0.004h6.445l0.47-1.469
		L82.48,9.688c-0.131-0.02-0.237-0.108-0.274-0.235l-1.69-5.638c-0.031-0.102-0.013-0.213,0.053-0.299
		c0.062-0.086,0.164-0.136,0.271-0.136h11.938l0.599-1.87c0.045-0.141,0.175-0.235,0.323-0.235L95.5,1.271L95.5,1.271z"/>
</g>
<g>
	<g>
		<path fill="#FFFFFF" d="M122.626,9.923h-9.701V15.5h9.693L122.626,9.923z M119.441,13.395h-3.834l-0.178-0.181v-1.28l0.178-0.18
			h3.834l0.181,0.178v1.283L119.441,13.395z"/>
		<path fill="#FFFFFF" d="M122.627,9.441l0.008-5.759h-9.71v5.759H122.627z M115.607,5.802h3.834l0.181,0.179v1.282l-0.181,0.18
			h-3.834l-0.178-0.18v-1.28L115.607,5.802z"/>
	</g>
	<polygon fill="#FFFFFF" points="122.781,3.201 126.562,0.5 117.753,0.5 113.432,3.201 	"/>
	<polygon fill="#FFFFFF" points="127.075,12.459 127.075,0.7 123.1,3.538 123.1,15.298 	"/>
</g>
<path fill="#FFFFFF" d="M136,1.999c3.309,0,6,2.691,6,6c0,3.31-2.691,6-6,6s-6-2.69-6-6C130,4.69,132.691,1.999,136,1.999
	 M136-0.001c-4.418,0-8,3.582-8,8s3.582,8,8,8s8-3.582,8-8S140.418-0.001,136-0.001L136-0.001z"/>
<path fill="#FFFFFF" d="M139.268,5.108l-0.514-0.512l-2.452,2.267c-0.099-0.026-0.194-0.062-0.302-0.062
	c-0.07,0-0.131,0.028-0.197,0.04l-2.248-5.06l-0.836,0.41l2.096,5.748c0,0.021-0.012,0.038-0.012,0.059
	c0,0.661,0.536,1.197,1.197,1.197s1.197-0.536,1.197-1.197c0-0.186-0.051-0.357-0.127-0.514L139.268,5.108z"/>
<path fill="#FFFFFF" d="M156.693,10.571c-0.643,0-1.224,0.253-1.659,0.655l-5.318-2.826c0.034-0.164,0.054-0.335,0.054-0.511
	c0-0.197-0.027-0.385-0.07-0.57l5.185-2.699c0.45,0.492,1.093,0.806,1.812,0.806c1.359,0,2.464-1.104,2.464-2.464
	c0-1.36-1.104-2.464-2.464-2.464c-1.36,0-2.463,1.104-2.463,2.464c0,0.056,0.014,0.108,0.017,0.163l-5.433,2.829
	c-0.418-0.326-0.937-0.528-1.508-0.528c-1.36,0-2.464,1.103-2.464,2.463s1.104,2.463,2.464,2.463c0.597,0,1.135-0.221,1.56-0.571
	l5.403,2.87c-0.021,0.125-0.039,0.253-0.039,0.384c0,1.36,1.103,2.463,2.463,2.463c1.359,0,2.464-1.103,2.464-2.463
	S158.055,10.571,156.693,10.571z"/>
<linearGradient id="SVGID_1_" gradientUnits="userSpaceOnUse" x1="-591.9375" y1="1073.2676" x2="-577.0625" y2="1073.2676" gradientTransform="matrix(1 0 0 -1 752.5 1081)">
	<stop  offset="0" style="stop-color:#4BAA48"/>
	<stop  offset="1" style="stop-color:#3C8E4B"/>
</linearGradient>
<polygon fill="url(#SVGID_1_)" stroke="#296E32" stroke-width="0.5" stroke-miterlimit="10" points="165.767,13.685 160.562,7.737 
	162.939,5.658 165.921,9.066 173.205,1.782 175.438,4.014 "/>
</svg>
