<?xml version="1.0" encoding="utf-8"?>
<!-- Generator: Adobe Illustrator 22.0.1, SVG Export Plug-In . SVG Version: 6.00 Build 0)  -->
<svg version="1.1" id="Ebene_1" xmlns="http://www.w3.org/2000/svg" xmlns:xlink="http://www.w3.org/1999/xlink" x="0px" y="0px"
	 viewBox="0 0 64 64" style="enable-background:new 0 0 64 64;" xml:space="preserve">
<style type="text/css">
	.st0{fill:#CC1A1A;}
	.st1{fill:none;stroke:#A2195B;stroke-width:0.5;stroke-miterlimit:10;}
</style>
<g>
	<polygon class="st0" points="27.9,23.3 23.9,41 23.8,41.4 23.7,40.7 19,28.6 13,33.9 20.6,51 28.7,51 35.2,16.6 	"/>
	<g>
		<polygon class="st1" points="35.2,16.6 28.7,51 20.6,51 13,33.9 19,28.6 23.7,40.7 23.8,41.4 23.9,41 27.9,23.3 		"/>
	</g>
	<path class="st0" d="M39,51h6V24.5h-6V51z M39,14.3v6l6-5.9V9L39,14.3z"/>
	<path class="st1" d="M45,51h-6V24.5h6V51z M45,14.4l-6,5.9v-6L45,9V14.4z"/>
</g>
</svg>
