<?xml version="1.0" encoding="utf-8"?>
<!-- Generator: Adobe Illustrator 22.0.1, SVG Export Plug-In . SVG Version: 6.00 Build 0)  -->
<svg version="1.1" id="Ebene_1" xmlns="http://www.w3.org/2000/svg" xmlns:xlink="http://www.w3.org/1999/xlink" x="0px" y="0px"
	 viewBox="0 0 140 64" style="enable-background:new 0 0 140 64;" xml:space="preserve">
<style type="text/css">
	.st0{fill:#706F6F;}
</style>
<g>
	<polygon class="st0" points="24.5,22.4 18.9,47.2 18.7,47.8 18.6,46.8 12.1,29.8 3.7,37.3 14.2,61.2 25.7,61.2 34.7,13.1 	"/>
	<path class="st0" d="M40.8,61.2h8V23.8h-8V61.2z M40.8,9.5V18l8-8.3V2L40.8,9.5z"/>
	<g>
		<path class="st0" d="M68.2,62c-4,0-7-1.3-9-3.7c-2-2.4-3-6-3-10.7V23.8h8.4l0,24c0,1.8,0.4,3.2,1.2,4.1c0.8,0.9,1.8,1.6,3.4,1.6
			h8.5c1.6,0,3.4-0.7,4.2-1.6c0.8-0.9,1.2-2.3,1.2-4.1v-24h8.4v23.8c0,4.8-1.1,8.3-3.1,10.7c-2,2.4-5,3.7-9,3.7H68.2z"/>
		<path class="st0" d="M127.8,53c1.9-0.5,3.5-1.3,4.7-2.4c2.3-2,3.6-5,3.6-9.1v-5.3c0-4-1.3-7.1-3.6-9.1c-2.3-2-5.8-3.4-10.5-3.4
			h-2.5H98.7v37.4h8.3V32.5h15.2c1.8,0,3.2,0.4,4,1.2c0.9,0.8,1.5,2.7,1.5,4.3v2.7c0,1.6-0.6,2.7-1.5,3.4c-0.9,0.8-2.2,1.2-4,1.2
			l-9.3,0l0.2,4.7l12.4,11.3h10.7L127.8,53z"/>
	</g>
</g>
</svg>
