<?xml version="1.0" encoding="utf-8"?>
<!-- Generator: Adobe Illustrator 22.0.1, SVG Export Plug-In . SVG Version: 6.00 Build 0)  -->
<svg version="1.1" id="Ebene_1" xmlns="http://www.w3.org/2000/svg" xmlns:xlink="http://www.w3.org/1999/xlink" x="0px" y="0px"
	 viewBox="0 0 64 64" style="enable-background:new 0 0 64 64;" xml:space="preserve">
<style type="text/css">
	.st0{fill:#706F6F;}
</style>
<g>
	<path class="st0" d="M55.4,32c0-1-0.1-2.1-0.2-3.1c2.3-1.2,4.6-2.6,6.7-4.3c-0.3-1.5-0.9-2.9-1.4-4.3c-2.6,0.1-5.2,0.3-7.7,0.8
		c-1-1.9-2.2-3.6-3.7-5.2c1.1-2.2,2-4.5,2.7-7C50.5,8,49.3,7.1,48,6.3c-2,1.4-3.8,3-5.5,4.7c-2-1-4.2-1.7-6.5-2.1
		c-0.4-2.3-1.1-4.7-2-6.9C33.4,2,32.7,2,32,2h0c-0.7,0-1.4,0-2,0.1c-0.9,2.2-1.6,4.6-2,6.9c-2.3,0.4-4.5,1.1-6.5,2.1
		C19.8,9.4,18,7.8,16,6.3c-1.3,0.7-2.5,1.7-3.8,2.6c0.7,2.5,1.5,4.8,2.7,7c-1.5,1.5-2.7,3.3-3.7,5.2c-2.5-0.5-5-0.7-7.7-0.8
		c-0.5,1.4-1.1,2.8-1.4,4.3c2.1,1.7,4.4,3.1,6.7,4.3c-0.1,1-0.2,2-0.2,3.1c0,1,0.1,2.1,0.2,3.1c-2.3,1.2-4.6,2.6-6.7,4.3
		c0.3,1.5,0.9,2.9,1.4,4.3c2.6-0.1,5.2-0.3,7.7-0.8c1,1.9,2.2,3.6,3.7,5.2c-1.1,2.2-2,4.5-2.7,7c1.2,0.9,2.4,1.8,3.8,2.6
		c2-1.4,3.8-3,5.4-4.7c2,1,4.2,1.7,6.5,2.1c0.4,2.3,1.1,4.7,2,6.9c0.7,0.1,1.4,0.1,2,0.1h0c0.7,0,1.4,0,2-0.1c0.9-2.2,1.6-4.6,2-6.9
		c2.3-0.4,4.5-1.1,6.5-2.1c1.7,1.7,3.5,3.3,5.5,4.7c1.3-0.7,2.5-1.7,3.8-2.6c-0.7-2.5-1.5-4.8-2.7-7c1.5-1.5,2.7-3.3,3.7-5.2
		c2.5,0.5,5,0.7,7.7,0.8c0.5-1.4,1.1-2.8,1.4-4.3c-2.1-1.7-4.4-3.1-6.7-4.3C55.3,34.1,55.4,33,55.4,32z M32,45.8
		c-7.6,0-13.8-6.2-13.8-13.8c0-7.6,6.2-13.8,13.8-13.8c7.6,0,13.8,6.2,13.8,13.8C45.8,39.6,39.6,45.8,32,45.8z"/>
</g>
</svg>
