<?xml version="1.0" encoding="utf-8"?>
<!-- Generator: Adobe Illustrator 22.0.1, SVG Export Plug-In . SVG Version: 6.00 Build 0)  -->
<svg version="1.1" id="Ebene_1" xmlns="http://www.w3.org/2000/svg" xmlns:xlink="http://www.w3.org/1999/xlink" x="0px" y="0px"
	 viewBox="0 0 64 64" style="enable-background:new 0 0 64 64;" xml:space="preserve">
<style type="text/css">
	.st0{fill:#706F6F;}
</style>
<g>
	<g>
		<polygon class="st0" points="40.5,52.7 24.8,52.7 24.2,50.3 41.1,50.3 		"/>
		<polygon class="st0" points="39.8,56.6 25.6,56.6 25,54.1 40.3,54.1 		"/>
		<polygon class="st0" points="36,62 29.4,62 28.3,57.7 37,57.7 		"/>
	</g>
	<path class="st0" d="M49.4,11.6c-3.1-5.7-10-9.4-16.3-9.6c-6.7-0.2-14,3.6-17.2,9.6c-4.9,9.2-2.2,16.9,1.1,21.4
		c2.3,3.1,4.4,6.7,4.8,9c0.6,2.5,0.5,4.8,2,7h17.5c0.7-1,1-1.9,1.3-3.1c0.2-1.1,0.4-2.4,0.7-4c0.5-2.3,2.6-5.9,4.8-9
		C51.6,28.5,54.4,20.8,49.4,11.6z M47.7,28.3c-0.6,1-1.1,1.9-1.9,2.7c4.1-7.7,1-17.4-6.9-21.8c-7-3.8-15.5-2.2-20.3,3.5
		c0-0.1,0.1-0.1,0.1-0.2C22.8,4.7,32.8,2,40.8,6.3C48.8,10.7,51.9,20.5,47.7,28.3z"/>
</g>
</svg>
