<?xml version="1.0" encoding="utf-8"?>
<!-- Generator: Adobe Illustrator 22.1.0, SVG Export Plug-In . SVG Version: 6.00 Build 0)  -->
<svg version="1.1" id="Ebene_1" xmlns="http://www.w3.org/2000/svg" xmlns:xlink="http://www.w3.org/1999/xlink" x="0px" y="0px"
	 viewBox="0 0 64 64" style="enable-background:new 0 0 64 64;" xml:space="preserve">
<style type="text/css">
	.st0{fill:#EEEEEE;}
	.st1{fill:#706F6F;}
</style>
<path class="st0" d="M3,15.8V53c0,3.3,2.7,6,6,6h46c3.3,0,6-2.7,6-6V15.8H3z"/>
<path class="st1" d="M61,12v-1c0-3.3-2.7-6-6-6H9c-3.3,0-6,2.7-6,6v1H61z"/>
<path class="st1" d="M50,37.6c0-4.5-3.7-8.2-8.3-8.2c-0.6,0-1.2,0.1-1.7,0.2c-1-3.5-4.2-6.1-8.1-6.1c-4.1,0-7.5,3-8.2,6.9
	c-0.6-0.1-1.2-0.2-1.8-0.2c-4.3,0-7.9,3.5-7.9,7.9c0,4.3,3.4,7.8,7.7,7.9l20.2,0C46.2,45.8,50,42.1,50,37.6z"/>
</svg>
