<?xml version="1.0" encoding="utf-8"?>
<!-- Generator: Adobe Illustrator 22.0.1, SVG Export Plug-In . SVG Version: 6.00 Build 0)  -->
<svg version="1.1" id="Ebene_1" xmlns="http://www.w3.org/2000/svg" xmlns:xlink="http://www.w3.org/1999/xlink" x="0px" y="0px"
	 viewBox="0 0 64 64" style="enable-background:new 0 0 64 64;" xml:space="preserve">
<style type="text/css">
	.st0{fill:#EEEEEE;}
	.st1{fill:#706F6F;}
</style>
<path class="st0" d="M3,15.8V53c0,3.3,2.7,6,6,6h46c3.3,0,6-2.7,6-6V15.8H3z"/>
<g>
	<g>
		<path class="st1" d="M12.5,42.6c-0.3,0-0.7-0.1-1-0.4c-0.5-0.5-0.5-1.4,0-1.9l8.8-8.8l-8.8-8.8c-0.5-0.5-0.5-1.4,0-1.9
			c0.5-0.5,1.4-0.5,1.9,0l10.7,10.7L13.5,42.2C13.2,42.5,12.9,42.6,12.5,42.6z"/>
		<path class="st1" d="M34.1,42.6h-9.4c-0.8,0-1.4-0.6-1.4-1.4s0.6-1.4,1.4-1.4h9.4c0.8,0,1.4,0.6,1.4,1.4S34.9,42.6,34.1,42.6z"/>
	</g>
</g>
<path class="st1" d="M61,12v-1c0-3.3-2.7-6-6-6H9c-3.3,0-6,2.7-6,6v1H61z"/>
</svg>
