<?xml version="1.0" encoding="utf-8"?>
<!-- Generator: Adobe Illustrator 22.0.1, SVG Export Plug-In . SVG Version: 6.00 Build 0)  -->
<svg version="1.1" id="Ebene_1" xmlns="http://www.w3.org/2000/svg" xmlns:xlink="http://www.w3.org/1999/xlink" x="0px" y="0px"
	 viewBox="0 0 300 50" style="enable-background:new 0 0 300 50;" xml:space="preserve">
<style type="text/css">
	.st0{fill:#CC1A1A;}
	.st1{fill:none;stroke:#A2195B;stroke-width:0.5;stroke-miterlimit:10;}
	.st2{fill:#C9C9C9;}
</style>
<g>
	<polygon class="st0" points="19.8,16.9 15.1,37.6 15,38.1 14.8,37.3 9.4,23.1 2.4,29.3 11.2,49.3 20.7,49.3 28.3,9.1 	"/>
	<g>
		<polygon class="st1" points="28.3,9.1 20.7,49.3 11.2,49.3 2.4,29.3 9.4,23.1 14.8,37.3 15,38.1 15.1,37.6 19.8,16.9 		"/>
	</g>
	<path class="st0" d="M32.7,49.3h7v-31h-7V49.3z M32.7,6.4v7l7-6.9V0.2L32.7,6.4z"/>
	<g>
		<path class="st1" d="M39.7,49.3h-7v-31h7V49.3z M39.7,6.5l-7,6.9v-7l7-6.2V6.5z"/>
		<path class="st0" d="M55.2,49.9c-3.3,0-5.8-1.1-7.4-3c-1.7-2-2.5-4.9-2.5-8.9V18.3h6.9l0,19.9c0,1.5,0.3,2.7,1,3.4
			c0.6,0.8,1.5,1.3,2.8,1.3h7.1c1.3,0,2.8-0.5,3.5-1.3c0.6-0.8,1-1.9,1-3.4V18.3h6.9V38c0,4-0.9,6.9-2.6,8.9c-1.7,2-4.1,3-7.4,3
			H55.2z"/>
		<path class="st1" d="M55.2,49.9c-3.3,0-5.8-1.1-7.4-3c-1.7-2-2.5-4.9-2.5-8.9V18.3h6.9l0,19.9c0,1.5,0.3,2.7,1,3.4
			c0.6,0.8,1.5,1.3,2.8,1.3h7.1c1.3,0,2.8-0.5,3.5-1.3c0.6-0.8,1-1.9,1-3.4V18.3h6.9V38c0,4-0.9,6.9-2.6,8.9c-1.7,2-4.1,3-7.4,3
			H55.2z"/>
		<path class="st0" d="M104.3,42.5c1.6-0.4,2.9-1.1,3.9-2c2-1.7,3-4.2,3-7.5v-4.4c0-3.3-1-5.9-3-7.5c-2-1.7-4.8-2.8-8.8-2.8h-2.1
			H79.9v31h6.9V25.5h12.7c1.5,0,2.6,0.3,3.4,1c0.8,0.7,1.3,2.2,1.3,3.5v2.2c0,1.3-0.5,2.2-1.3,2.9c-0.7,0.7-1.9,1-3.4,1l-7.8,0
			l0.2,3.9l10.4,9.4h9L104.3,42.5z"/>
		<path class="st1" d="M104.3,42.5c1.6-0.4,2.9-1.1,3.9-2c2-1.7,3-4.2,3-7.5v-4.4c0-3.3-1-5.9-3-7.5c-2-1.7-4.8-2.8-8.8-2.8h-2.1
			H79.9v31h6.9V25.5h12.7c1.5,0,2.6,0.3,3.4,1c0.8,0.7,1.3,2.2,1.3,3.5v2.2c0,1.3-0.5,2.2-1.3,2.9c-0.7,0.7-1.9,1-3.4,1l-7.8,0
			l0.2,3.9l10.4,9.4h9L104.3,42.5z"/>
	</g>
</g>
<g>
	<path class="st2" d="M166.3,36.8L166.3,36.8l0,1.7c0,1.5-0.3,2.6-0.9,3.3c-0.6,0.7-2.1,1.3-3.4,1.3h-4.3c-1.3,0-2.1-0.5-2.8-1.3
		c-0.6-0.7-0.9-1.8-0.9-3.3l0-1.7h0v-4.4l0-0.2h0v-1.7c0-1.5,0.3-2.6,0.9-3.3c0.6-0.7,2.1-1.3,3.4-1.3h4.3c1.3,0,2.1,0.5,2.8,1.3
		c0.6,0.7,0.9,1.8,0.9,3.3l0,1.7h0v4.4L166.3,36.8z M173.1,38.3v-1.5v-4.6v-1.5c0-3.9-0.9-6.8-2.5-8.7c-1.6-1.9-4-3-7.3-3H157
		c-3.2,0-5.7,1-7.3,3c-1.6,1.9-2.5,4.8-2.5,8.7v1.5v4.6v1.5c0,3.9,0.9,6.8,2.5,8.7c1.6,1.9,4,3,7.3,3h6.4c3.2,0,5.7-1,7.3-3
		C172.2,45,173.1,42.2,173.1,38.3"/>
	<path class="st2" d="M121.5,29.6c0-3.5,1.1-6.1,3.2-7.9c2.1-1.8,5.2-2.7,9.4-2.7h7.7v7.3l-7.9,0c-1.6,0-2.8,0.3-3.6,1
		c-0.8,0.7-1.4,1.6-1.4,3v7.5c0,1.4,0.6,3,1.4,3.7c0.8,0.7,2,1,3.6,1h7.9v7.3h-7.7c-4.2,0-7.3-1-9.4-2.7c-2.1-1.7-3.2-4.4-3.2-7.9
		V29.6z"/>
	<path class="st2" d="M197.3,19c3.2,0,5.6,1,7.3,3c1.6,1.9,2.5,4.8,2.5,8.7v19.2h-6.8l0-19.4c0-1.5-0.3-2.6-0.9-3.3
		c-0.6-0.7-1.5-1.3-2.8-1.3h-6.9c-1.3,0-2.8,0.5-3.4,1.3c-0.6,0.7-0.9,1.9-0.9,3.3v19.4h-6.8V30.7c0-3.9,0.9-6.7,2.5-8.7
		c1.6-1.9,4-3,7.3-3H197.3z"/>
	<path class="st2" d="M225.1,43.4c-1.3,0-2.4,0-3.2-0.1c-0.8-0.1-1.5-0.3-1.9-0.6c-0.5-0.3-0.8-0.7-1-1.3c-0.2-0.5-0.2-1.3-0.2-2.2
		V25.9h6.4v-6.6h-6.4V9h-6.4v30.1c0,3.6,0.8,6.3,2.5,8.1c1.7,1.8,4.1,2.7,7.3,2.7h2.9V43.4z"/>
	<path class="st2" d="M269.8,36.8L269.8,36.8l0,1.7c0,1.5-0.3,2.6-0.9,3.3c-0.6,0.7-2.1,1.3-3.4,1.3h-4.3c-1.3,0-2.1-0.5-2.8-1.3
		c-0.6-0.7-0.9-1.8-0.9-3.3l0-1.7h0v-4.4l0-0.2h0v-1.7c0-1.5,0.3-2.6,0.9-3.3c0.6-0.7,2.1-1.3,3.4-1.3h4.3c1.3,0,2.1,0.5,2.8,1.3
		c0.6,0.7,0.9,1.8,0.9,3.3l0,1.7h0v4.4L269.8,36.8z M276.6,38.3v-1.5v-4.6v-1.5c0-3.9-0.9-6.8-2.5-8.7c-1.6-1.9-4-3-7.3-3h-6.4
		c-3.2,0-5.7,1-7.3,3c-1.6,1.9-2.5,4.8-2.5,8.7v1.5v4.6v1.5c0,3.9,0.9,6.8,2.5,8.7c1.6,1.9,4,3,7.3,3h6.4c3.2,0,5.7-1,7.3-3
		S276.6,42.2,276.6,38.3"/>
</g>
<rect x="281.9" y="9" class="st2" width="7" height="41"/>
<g>
	<path class="st2" d="M247.2,19.3h-4.6c-2.3,0-4.1,0.6-5.2,1.8v-1.8h-7V50h7V30.1c0-1.5,0.3-2.6,1-3.2c0.6-0.7,1.7-1,3.1-1h5.8V19.3
		z"/>
</g>
</svg>
